HIERARCHY
ROOT root
{
	OFFSET	0	13.1	24.9
	CHANNELS 6  Xposition Yposition Zposition Xrotation Yrotation Zrotation
	JOINT spine_1
	{
		OFFSET	0	9.99999	0
		CHANNELS 3  Xrotation Yrotation Zrotation
		JOINT spine_2
		{
			OFFSET	0	112	-10
			CHANNELS 3  Xrotation Yrotation Zrotation
			JOINT spine_3
			{
				OFFSET	0	206.5	19.3
				CHANNELS 3  Xrotation Yrotation Zrotation
				JOINT spine_4
				{
					OFFSET	0	110.4	14.6
					CHANNELS 3  Xrotation Yrotation Zrotation
					JOINT neck_1
					{
						OFFSET	0	71.8	-50.3
						CHANNELS 3  Xrotation Yrotation Zrotation
						JOINT neck_2
						{
							OFFSET	0	86.2	-25.8
							CHANNELS 3  Xrotation Yrotation Zrotation
							JOINT head_ee
							{
								OFFSET	0	179.8	-8.7
								CHANNELS 3  Xrotation Yrotation Zrotation
								End Site
								{
									OFFSET	1	0	0
								}
							}
						}
					}
					JOINT left_clavicle
					{
						OFFSET	-43.2	22.4	-70.8
						CHANNELS 3  Xrotation Yrotation Zrotation
						JOINT left_shoulder
						{
							OFFSET	-93.9	-5.79999	48.7
							CHANNELS 3  Xrotation Yrotation Zrotation
							JOINT left_elbow
							{
								OFFSET	-291.4	-30.8	15.2
								CHANNELS 3  Xrotation Yrotation Zrotation
								JOINT left_lowarm_twist
								{
									OFFSET	-110.7	-3.89999	13.6
									CHANNELS 3  Xrotation Yrotation Zrotation
									JOINT left_hand
									{
										OFFSET	-110.7	-3.89999	13.6
										CHANNELS 3  Xrotation Yrotation Zrotation
										JOINT left_ee
										{
											OFFSET	-80.8	-5.10001	12.1
											CHANNELS 3  Xrotation Yrotation Zrotation
											End Site
											{
												OFFSET	1	0	0
											}
										}
									}
								}
							}
						}
					}
					JOINT right_clavicle
					{
						OFFSET	43.2	22.4	-70.8
						CHANNELS 3  Xrotation Yrotation Zrotation
						JOINT right_shoulder
						{
							OFFSET	93.9	-5.79999	48.7
							CHANNELS 3  Xrotation Yrotation Zrotation
							JOINT right_elbow
							{
								OFFSET	291.4	-30.8	15.2
								CHANNELS 3  Xrotation Yrotation Zrotation
								JOINT right_lowarm_twist
								{
									OFFSET	110.7	-3.89999	13.6
									CHANNELS 3  Xrotation Yrotation Zrotation
									JOINT right_hand
									{
										OFFSET	110.7	-3.89999	13.6
										CHANNELS 3  Xrotation Yrotation Zrotation
										JOINT right_ee
										{
											OFFSET	80.8	-5.10001	12.1
											CHANNELS 3  Xrotation Yrotation Zrotation
											End Site
											{
												OFFSET	1	0	0
											}
										}
									}
								}
							}
						}
					}
				}
			}
		}
	}
	JOINT left_hip
	{
		OFFSET	-82.8	-127.5	0.300001
		CHANNELS 3  Xrotation Yrotation Zrotation
		JOINT left_knee
		{
			OFFSET	-28.2	-396.7	2.2
			CHANNELS 3  Xrotation Yrotation Zrotation
			JOINT left_ankle
			{
				OFFSET	-11.7	-411.3	35.4
				CHANNELS 3  Xrotation Yrotation Zrotation
				JOINT left_toes
				{
					OFFSET	0	-60	-88.6
					CHANNELS 3  Xrotation Yrotation Zrotation
					JOINT left_foot_ee
					{
						OFFSET	-22.5	-16.5	-42.2
						CHANNELS 3  Xrotation Yrotation Zrotation
						End Site
						{
							OFFSET	1	0	0
						}
					}
				}
			}
		}
	}
	JOINT right_hip
	{
		OFFSET	82.8	-127.5	0.300001
		CHANNELS 3  Xrotation Yrotation Zrotation
		JOINT right_knee
		{
			OFFSET	28.2	-396.7	2.2
			CHANNELS 3  Xrotation Yrotation Zrotation
			JOINT right_ankle
			{
				OFFSET	11.7	-411.3	35.4
				CHANNELS 3  Xrotation Yrotation Zrotation
				JOINT right_toes
				{
					OFFSET	0	-60	-88.6
					CHANNELS 3  Xrotation Yrotation Zrotation
					JOINT right_foot_ee
					{
						OFFSET	22.5	-16.5	-42.2
						CHANNELS 3  Xrotation Yrotation Zrotation
						End Site
						{
							OFFSET	1	0	0
						}
					}
				}
			}
		}
	}
}
MOTION
Frames: 5
Frame Time: 0.02
3528.69749178 694.986 -1521.12706515 104.049115722 87.102634265 -93.3681068358 -6.99984 -0.806972 -5.74603 -6.98159 -0.440328 -5.78555 -6.89473 1.47391 -5.61252 -6.93821 0.570579 -5.7742 5.56781 0.243122 1.28272 5.57385 -0.713941 1.48721 -0.0 0.0 -0.0 10.294 13.8928 18.9065 9.98092 -25.231 79.4382 1.80832 -41.8497 0.691479 33.2244 -0.0445112 -4.18508 -3.41914 25.8093 -8.95459 -0.0 0.0 -0.0 9.13838 4.7962 -17.9917 -3.56318 32.7506 -43.491 1.05168 27.5176 -0.257524 6.38876 -0.180889 0.795611 -3.89786 -24.0636 12.7733 0.0 0.0 0.0 25.8927 -17.8759 -14.5454 -75.6581 -4.10546 10.0016 -17.2231 24.5266 2.68742 28.7346 -0.0 -0.0 -0.0 0.0 -0.0 5.18893 3.39773 -12.9149 -39.8869 0.459584 -5.98244 -23.0603 -27.347 -3.66176 13.6149 -0.0 -0.0 0.0 0.0 0.0 
3529.86752055 694.986 -1522.25170018 75.5744348527 87.0977959025 -64.8584058207 -6.99984 -0.806972 -5.74603 -6.98159 -0.440328 -5.78555 -6.89473 1.47391 -5.61252 -6.93821 0.570579 -5.7742 5.56781 0.243122 1.28272 5.57385 -0.713941 1.48721 -0.0 0.0 -0.0 10.294 13.8928 18.9065 9.98092 -25.231 79.4382 1.80832 -41.8497 0.691479 33.2244 -0.0445112 -4.18508 -3.41914 25.8093 -8.95459 -0.0 0.0 -0.0 9.13838 4.7962 -17.9917 -3.56318 32.7506 -43.491 1.05168 27.5176 -0.257524 6.38876 -0.180889 0.795611 -3.89786 -24.0636 12.7733 0.0 0.0 0.0 25.8927 -17.8759 -14.5454 -75.6581 -4.10546 10.0016 -17.2231 24.5266 2.68742 28.7346 -0.0 -0.0 -0.0 0.0 -0.0 5.18893 3.39773 -12.9149 -39.8869 0.459584 -5.98244 -23.0603 -27.347 -3.66176 13.6149 -0.0 -0.0 0.0 0.0 0.0 
3492.65266965 629.824 -1550.01795875 152.624850421 76.3199054435 -144.955944935 -8.81158 -0.409224 -4.67347 -8.79944 -0.111343 -4.69 -8.75929 1.57147 -4.42084 -8.78554 0.854346 -4.61304 4.60319 1.16241 3.532 4.64175 -1.07617 4.08025 -0.0 0.0 -0.0 10.0812 9.54212 19.0607 7.67673 -21.1301 71.9084 1.27591 -32.2935 0.369416 13.1359 0.274528 -1.65188 -1.31909 19.639 0.053661 -0.0 0.0 -0.0 9.5019 -2.15242 -18.5291 13.1606 37.6531 -48.7651 2.15498 46.8643 -0.934066 11.7087 -0.263142 1.46994 -4.02665 -24.6835 13.1369 0.0 0.0 0.0 44.2391 -15.1366 -14.7211 -87.4989 -5.7727 10.7458 -5.07186 12.977 0.752424 39.6735 -0.0 -0.0 -0.0 0.0 -0.0 10.9211 13.3558 -19.8858 -61.2305 2.33432 -8.6596 -18.1092 -28.627 -2.89316 9.36643 -0.0 -0.0 0.0 0.0 0.0 
3491.42685663 629.824 -1548.66450614 154.299154651 75.4776794268 -146.682214312 -8.81158 -0.409224 -4.67347 -8.79944 -0.111343 -4.69 -8.75929 1.57147 -4.42084 -8.78554 0.854346 -4.61304 4.60319 1.16241 3.532 4.64175 -1.07617 4.08025 -0.0 0.0 -0.0 10.0812 9.54212 19.0607 7.67673 -21.1301 71.9084 1.27591 -32.2935 0.369416 13.1359 0.274528 -1.65188 -1.31909 19.639 0.053661 -0.0 0.0 -0.0 9.5019 -2.15242 -18.5291 13.1606 37.6531 -48.7651 2.15498 46.8643 -0.934066 11.7087 -0.263142 1.46994 -4.02665 -24.6835 13.1369 0.0 0.0 0.0 44.2391 -15.1366 -14.7211 -87.4989 -5.7727 10.7458 -5.07186 12.977 0.752424 39.6735 -0.0 -0.0 -0.0 0.0 -0.0 10.9211 13.3558 -19.8858 -61.2305 2.33432 -8.6596 -18.1092 -28.627 -2.89316 9.36643 -0.0 -0.0 0.0 0.0 0.0 
3488.50576717 629.824 -1545.24891691 157.680952007 73.3602645799 -150.192350432 -8.81158 -0.409224 -4.67347 -8.79944 -0.111343 -4.69 -8.75929 1.57147 -4.42084 -8.78554 0.854346 -4.61304 4.60319 1.16241 3.532 4.64175 -1.07617 4.08025 -0.0 0.0 -0.0 10.0812 9.54212 19.0607 7.67673 -21.1301 71.9084 1.27591 -32.2935 0.369416 13.1359 0.274528 -1.65188 -1.31909 19.639 0.053661 -0.0 0.0 -0.0 9.5019 -2.15242 -18.5291 13.1606 37.6531 -48.7651 2.15498 46.8643 -0.934066 11.7087 -0.263142 1.46994 -4.02665 -24.6835 13.1369 0.0 0.0 0.0 44.2391 -15.1366 -14.7211 -87.4989 -5.7727 10.7458 -5.07186 12.977 0.752424 39.6735 -0.0 -0.0 -0.0 0.0 -0.0 10.9211 13.3558 -19.8858 -61.2305 2.33432 -8.6596 -18.1092 -28.627 -2.89316 9.36643 -0.0 -0.0 0.0 0.0 0.0 
